<svg width="50" height="50" viewBox="0 0 50 50" fill="none" xmlns="http://www.w3.org/2000/svg">
<path d="M25 8.33337C26.1506 8.33337 27.0833 9.26611 27.0833 10.4167V22.9167H39.5833C40.7339 22.9167 41.6666 23.8495 41.6666 25.0001C41.6666 26.1506 40.7339 27.0834 39.5833 27.0834H27.0833V39.5834C27.0833 40.734 26.1506 41.6667 25 41.6667C23.8494 41.6667 22.9166 40.734 22.9166 39.5834V27.0834H10.4166C9.26605 27.0834 8.33331 26.1506 8.33331 25.0001C8.33331 23.8495 9.26605 22.9167 10.4166 22.9167H22.9166V10.4167C22.9166 9.26611 23.8494 8.33337 25 8.33337Z" fill="#E7E7E7"/>
</svg>
